<?xml version="1.0" encoding="UTF-8" standalone="no"?>
<!-- Created with Inkscape (http://www.inkscape.org/) -->

<svg
   width="64"
   height="64"
   viewBox="0 0 16.933334 16.933333"
   version="1.1"
   id="svg1"
   inkscape:version="1.4 (86a8ad7, 2024-10-11)"
   sodipodi:docname="favicon.svg"
   inkscape:export-filename="logo2.png"
   inkscape:export-xdpi="96"
   inkscape:export-ydpi="96"
   xmlns:inkscape="http://www.inkscape.org/namespaces/inkscape"
   xmlns:sodipodi="http://sodipodi.sourceforge.net/DTD/sodipodi-0.dtd"
   xmlns="http://www.w3.org/2000/svg"
   xmlns:svg="http://www.w3.org/2000/svg">
  <sodipodi:namedview
     id="namedview1"
     pagecolor="#ffffff"
     bordercolor="#000000"
     borderopacity="0.25"
     inkscape:showpageshadow="2"
     inkscape:pageopacity="0.0"
     inkscape:pagecheckerboard="0"
     inkscape:deskcolor="#d1d1d1"
     inkscape:document-units="mm"
     inkscape:zoom="8.5771021"
     inkscape:cx="45.877966"
     inkscape:cy="21.627351"
     inkscape:window-width="1920"
     inkscape:window-height="1111"
     inkscape:window-x="-9"
     inkscape:window-y="-9"
     inkscape:window-maximized="1"
     inkscape:current-layer="layer1" />
  <defs
     id="defs1">
    <rect
       x="277.66205"
       y="187.30646"
       width="299.42651"
       height="218.30437"
       id="rect1" />
  </defs>
  <g
     inkscape:label="Layer 1"
     inkscape:groupmode="layer"
     id="layer1"
     transform="translate(6.7805481,-51.055315)">
    <path
       id="path1"
       style="fill:#000000;stroke-width:0.0448817"
       d="M 3.1951214,51.111585 8.5790428,64.298743 A 8.4658346,8.4658346 0 0 0 10.136556,59.436292 8.4658346,8.4658346 0 0 0 3.1951214,51.111585 Z m -3.10938787,0.02759 a 8.4658346,8.4658346 0 0 0 -6.88064023,8.297138 8.4658346,8.4658346 0 0 0 1.5255488,4.819833 z m 1.56064887,3.48106 -4.6524881,11.862813 a 8.4658346,8.4658346 0 0 0 4.6769317,1.418994 8.4658346,8.4658346 0 0 0 4.6393228,-1.39016 z" />
  </g>
</svg>
